<svg width="256" height="256" viewBox="0 0 256 256" fill="none" xmlns="http://www.w3.org/2000/svg" aria-label="Pump, the Pumpkin Mascot (Helping)">
    <!-- Body -->
    <path d="M128 232C185.438 232 232 189.026 232 136C232 82.9735 185.438 40 128 40C70.5624 40 24 82.9735 24 136C24 189.026 70.5624 232 128 232Z" fill="#FF7518"/>
    
    <!-- Ribs -->
    <path d="M128 40C128 40 160 80 160 136C160 192 128 232 128 232" stroke="#E65D00" stroke-width="2" stroke-opacity="0.2"/>
    <path d="M128 40C128 40 96 80 96 136C96 192 128 232 128 232" stroke="#E65D00" stroke-width="2" stroke-opacity="0.2"/>

    <!-- Stem: Tilted questioningly -->
    <path d="M108 45C108 45 100 25 110 20C120 15 130 25 128 45" stroke="#3B8132" stroke-width="8" stroke-linecap="round" stroke-linejoin="round"/>

    <!-- Eyes: Concerned/Thinking (One wider) -->
    <circle cx="96" cy="120" r="14" fill="#1A1A2E"/> <!-- Left Eye Bigger -->
    <circle cx="160" cy="120" r="10" fill="#1A1A2E"/> <!-- Right Eye Smaller -->
    
    <!-- Shine -->
    <circle cx="90" cy="114" r="4" fill="white"/>
    <circle cx="156" cy="116" r="3" fill="white"/>

    <!-- Mouth: Small 'o' or flat line -->
    <path d="M124 150L132 150" stroke="#4A2C0F" stroke-width="3" stroke-linecap="round"/>

    <!-- Hand/Nub: Pointing up -->
    <circle cx="180" cy="160" r="15" fill="#FF7518"/>
    <path d="M180 160L190 140" stroke="#FF7518" stroke-width="10" stroke-linecap="round"/>
</svg>
